<mxfile host="Electron" agent="Mozilla/5.0 (Windows NT 10.0; Win64; x64) AppleWebKit/537.36 (KHTML, like Gecko) draw.io/26.1.1 Chrome/132.0.6834.210 Electron/34.3.3 Safari/537.36" version="26.1.1">
  <diagram name="Page-1" id="UQAiz4u6P5SJVmlgvheR">
    <mxGraphModel dx="1300" dy="827" grid="1" gridSize="10" guides="1" tooltips="1" connect="1" arrows="1" fold="1" page="1" pageScale="1" pageWidth="1920" pageHeight="1200" math="0" shadow="0">
      <root>
        <mxCell id="0" />
        <mxCell id="1" parent="0" />
        <mxCell id="RjNWt2BDVBD-UGQIulfL-1" value="" style="rounded=0;whiteSpace=wrap;html=1;fillColor=none;dashed=1;" parent="1" vertex="1">
          <mxGeometry x="110" y="130" width="200" height="500" as="geometry" />
        </mxCell>
        <mxCell id="RjNWt2BDVBD-UGQIulfL-2" value="&lt;font style=&quot;font-size: 24px;&quot;&gt;Sources&lt;/font&gt;" style="rounded=1;whiteSpace=wrap;html=1;strokeColor=none;" parent="1" vertex="1">
          <mxGeometry x="150" y="110" width="120" height="40" as="geometry" />
        </mxCell>
        <mxCell id="RjNWt2BDVBD-UGQIulfL-3" style="edgeStyle=orthogonalEdgeStyle;rounded=0;orthogonalLoop=1;jettySize=auto;html=1;entryX=0;entryY=0.5;entryDx=0;entryDy=0;" parent="1" source="RjNWt2BDVBD-UGQIulfL-6" target="RjNWt2BDVBD-UGQIulfL-16" edge="1">
          <mxGeometry relative="1" as="geometry" />
        </mxCell>
        <mxCell id="RjNWt2BDVBD-UGQIulfL-4" style="edgeStyle=orthogonalEdgeStyle;rounded=0;orthogonalLoop=1;jettySize=auto;html=1;entryX=0;entryY=0.5;entryDx=0;entryDy=0;" parent="1" source="RjNWt2BDVBD-UGQIulfL-6" target="RjNWt2BDVBD-UGQIulfL-14" edge="1">
          <mxGeometry relative="1" as="geometry" />
        </mxCell>
        <mxCell id="RjNWt2BDVBD-UGQIulfL-5" style="edgeStyle=orthogonalEdgeStyle;rounded=0;orthogonalLoop=1;jettySize=auto;html=1;entryX=0;entryY=0.5;entryDx=0;entryDy=0;" parent="1" source="RjNWt2BDVBD-UGQIulfL-6" target="RjNWt2BDVBD-UGQIulfL-18" edge="1">
          <mxGeometry relative="1" as="geometry" />
        </mxCell>
        <mxCell id="RjNWt2BDVBD-UGQIulfL-6" value="&lt;font style=&quot;font-size: 20px;&quot;&gt;&lt;b&gt;CRM&lt;/b&gt;&lt;/font&gt;" style="image;aspect=fixed;html=1;points=[];align=center;fontSize=12;image=img/lib/azure2/general/Folder_Blank.svg;" parent="1" vertex="1">
          <mxGeometry x="170" y="277.13" width="75" height="60.87" as="geometry" />
        </mxCell>
        <mxCell id="RjNWt2BDVBD-UGQIulfL-7" style="edgeStyle=orthogonalEdgeStyle;rounded=0;orthogonalLoop=1;jettySize=auto;html=1;entryX=0;entryY=0.5;entryDx=0;entryDy=0;" parent="1" source="RjNWt2BDVBD-UGQIulfL-10" target="RjNWt2BDVBD-UGQIulfL-24" edge="1">
          <mxGeometry relative="1" as="geometry" />
        </mxCell>
        <mxCell id="RjNWt2BDVBD-UGQIulfL-8" style="edgeStyle=orthogonalEdgeStyle;rounded=0;orthogonalLoop=1;jettySize=auto;html=1;entryX=0;entryY=0.5;entryDx=0;entryDy=0;" parent="1" source="RjNWt2BDVBD-UGQIulfL-10" target="RjNWt2BDVBD-UGQIulfL-20" edge="1">
          <mxGeometry relative="1" as="geometry" />
        </mxCell>
        <mxCell id="RjNWt2BDVBD-UGQIulfL-9" style="edgeStyle=orthogonalEdgeStyle;rounded=0;orthogonalLoop=1;jettySize=auto;html=1;" parent="1" source="RjNWt2BDVBD-UGQIulfL-10" target="RjNWt2BDVBD-UGQIulfL-22" edge="1">
          <mxGeometry relative="1" as="geometry" />
        </mxCell>
        <mxCell id="RjNWt2BDVBD-UGQIulfL-10" value="&lt;font style=&quot;font-size: 20px;&quot;&gt;&lt;b&gt;ERP&lt;/b&gt;&lt;/font&gt;" style="image;aspect=fixed;html=1;points=[];align=center;fontSize=12;image=img/lib/azure2/general/Folder_Blank.svg;" parent="1" vertex="1">
          <mxGeometry x="175.5" y="476" width="69" height="56.00000000000001" as="geometry" />
        </mxCell>
        <mxCell id="RjNWt2BDVBD-UGQIulfL-11" value="" style="rounded=1;whiteSpace=wrap;html=1;fillColor=#ffe6cc;strokeColor=#d79b00;fillStyle=hatch;arcSize=5;" parent="1" vertex="1">
          <mxGeometry x="393" y="190" width="220" height="440" as="geometry" />
        </mxCell>
        <mxCell id="RjNWt2BDVBD-UGQIulfL-12" value="Bronze Layer" style="rounded=1;whiteSpace=wrap;html=1;fillColor=#ffe6cc;strokeColor=#d79b00;fontSize=20;fontStyle=1" parent="1" vertex="1">
          <mxGeometry x="393" y="130" width="220" height="50" as="geometry" />
        </mxCell>
        <mxCell id="RjNWt2BDVBD-UGQIulfL-13" style="edgeStyle=orthogonalEdgeStyle;rounded=0;orthogonalLoop=1;jettySize=auto;html=1;entryX=0;entryY=0.5;entryDx=0;entryDy=0;" parent="1" source="RjNWt2BDVBD-UGQIulfL-14" target="RjNWt2BDVBD-UGQIulfL-27" edge="1">
          <mxGeometry relative="1" as="geometry" />
        </mxCell>
        <mxCell id="RjNWt2BDVBD-UGQIulfL-14" value="crm_sales_details" style="rounded=1;whiteSpace=wrap;html=1;fillColor=#ffe6cc;strokeColor=#d79b00;fontSize=16;fontStyle=0" parent="1" vertex="1">
          <mxGeometry x="414" y="236" width="180" height="40" as="geometry" />
        </mxCell>
        <mxCell id="RjNWt2BDVBD-UGQIulfL-15" style="edgeStyle=orthogonalEdgeStyle;rounded=0;orthogonalLoop=1;jettySize=auto;html=1;" parent="1" source="RjNWt2BDVBD-UGQIulfL-16" target="RjNWt2BDVBD-UGQIulfL-28" edge="1">
          <mxGeometry relative="1" as="geometry" />
        </mxCell>
        <mxCell id="RjNWt2BDVBD-UGQIulfL-16" value="crm_cust_info" style="rounded=1;whiteSpace=wrap;html=1;fillColor=#ffe6cc;strokeColor=#d79b00;fontSize=16;fontStyle=0" parent="1" vertex="1">
          <mxGeometry x="414" y="290" width="180" height="40" as="geometry" />
        </mxCell>
        <mxCell id="RjNWt2BDVBD-UGQIulfL-17" style="edgeStyle=orthogonalEdgeStyle;rounded=0;orthogonalLoop=1;jettySize=auto;html=1;entryX=0;entryY=0.5;entryDx=0;entryDy=0;" parent="1" source="RjNWt2BDVBD-UGQIulfL-18" target="RjNWt2BDVBD-UGQIulfL-29" edge="1">
          <mxGeometry relative="1" as="geometry" />
        </mxCell>
        <mxCell id="RjNWt2BDVBD-UGQIulfL-18" value="crm_prd_info" style="rounded=1;whiteSpace=wrap;html=1;fillColor=#ffe6cc;strokeColor=#d79b00;fontSize=16;fontStyle=0" parent="1" vertex="1">
          <mxGeometry x="414" y="350" width="180" height="40" as="geometry" />
        </mxCell>
        <mxCell id="RjNWt2BDVBD-UGQIulfL-19" style="edgeStyle=orthogonalEdgeStyle;rounded=0;orthogonalLoop=1;jettySize=auto;html=1;entryX=0;entryY=0.5;entryDx=0;entryDy=0;" parent="1" source="RjNWt2BDVBD-UGQIulfL-20" target="RjNWt2BDVBD-UGQIulfL-30" edge="1">
          <mxGeometry relative="1" as="geometry" />
        </mxCell>
        <mxCell id="RjNWt2BDVBD-UGQIulfL-20" value="erp_cust_az12" style="rounded=1;whiteSpace=wrap;html=1;fillColor=#ffe6cc;strokeColor=#d79b00;fontSize=16;fontStyle=0" parent="1" vertex="1">
          <mxGeometry x="414" y="430" width="180" height="40" as="geometry" />
        </mxCell>
        <mxCell id="RjNWt2BDVBD-UGQIulfL-21" style="edgeStyle=orthogonalEdgeStyle;rounded=0;orthogonalLoop=1;jettySize=auto;html=1;entryX=0;entryY=0.5;entryDx=0;entryDy=0;" parent="1" source="RjNWt2BDVBD-UGQIulfL-22" target="RjNWt2BDVBD-UGQIulfL-31" edge="1">
          <mxGeometry relative="1" as="geometry" />
        </mxCell>
        <mxCell id="RjNWt2BDVBD-UGQIulfL-22" value="erp_loc_a101" style="rounded=1;whiteSpace=wrap;html=1;fillColor=#ffe6cc;strokeColor=#d79b00;fontSize=16;fontStyle=0" parent="1" vertex="1">
          <mxGeometry x="414" y="484" width="180" height="40" as="geometry" />
        </mxCell>
        <mxCell id="RjNWt2BDVBD-UGQIulfL-23" style="edgeStyle=orthogonalEdgeStyle;rounded=0;orthogonalLoop=1;jettySize=auto;html=1;entryX=0;entryY=0.5;entryDx=0;entryDy=0;" parent="1" source="RjNWt2BDVBD-UGQIulfL-24" target="RjNWt2BDVBD-UGQIulfL-32" edge="1">
          <mxGeometry relative="1" as="geometry" />
        </mxCell>
        <mxCell id="RjNWt2BDVBD-UGQIulfL-24" value="erp_px_cat_g1v2" style="rounded=1;whiteSpace=wrap;html=1;fillColor=#ffe6cc;strokeColor=#d79b00;fontSize=16;fontStyle=0" parent="1" vertex="1">
          <mxGeometry x="414" y="544" width="180" height="40" as="geometry" />
        </mxCell>
        <mxCell id="RjNWt2BDVBD-UGQIulfL-25" value="" style="rounded=1;whiteSpace=wrap;html=1;fillColor=#f5f5f5;strokeColor=#666666;fillStyle=hatch;arcSize=5;fontColor=#333333;" parent="1" vertex="1">
          <mxGeometry x="693" y="190" width="220" height="440" as="geometry" />
        </mxCell>
        <mxCell id="RjNWt2BDVBD-UGQIulfL-26" value="Silver Layer" style="rounded=1;whiteSpace=wrap;html=1;fillColor=#f5f5f5;strokeColor=#666666;fontSize=20;fontStyle=1;fontColor=#333333;" parent="1" vertex="1">
          <mxGeometry x="693" y="130" width="220" height="50" as="geometry" />
        </mxCell>
        <mxCell id="RjNWt2BDVBD-UGQIulfL-27" value="crm_sales_details" style="rounded=1;whiteSpace=wrap;html=1;fillColor=#f5f5f5;strokeColor=#666666;fontSize=16;fontStyle=0;fontColor=#333333;" parent="1" vertex="1">
          <mxGeometry x="714" y="236" width="180" height="40" as="geometry" />
        </mxCell>
        <mxCell id="RjNWt2BDVBD-UGQIulfL-28" value="crm_cust_info" style="rounded=1;whiteSpace=wrap;html=1;fillColor=#f5f5f5;strokeColor=#666666;fontSize=16;fontStyle=0;fontColor=#333333;" parent="1" vertex="1">
          <mxGeometry x="714" y="290" width="180" height="40" as="geometry" />
        </mxCell>
        <mxCell id="RjNWt2BDVBD-UGQIulfL-29" value="crm_prd_info" style="rounded=1;whiteSpace=wrap;html=1;fillColor=#f5f5f5;strokeColor=#666666;fontSize=16;fontStyle=0;fontColor=#333333;" parent="1" vertex="1">
          <mxGeometry x="714" y="350" width="180" height="40" as="geometry" />
        </mxCell>
        <mxCell id="RjNWt2BDVBD-UGQIulfL-30" value="erp_cust_az12" style="rounded=1;whiteSpace=wrap;html=1;fillColor=#f5f5f5;strokeColor=#666666;fontSize=16;fontStyle=0;fontColor=#333333;" parent="1" vertex="1">
          <mxGeometry x="714" y="430" width="180" height="40" as="geometry" />
        </mxCell>
        <mxCell id="RjNWt2BDVBD-UGQIulfL-31" value="erp_loc_a101" style="rounded=1;whiteSpace=wrap;html=1;fillColor=#f5f5f5;strokeColor=#666666;fontSize=16;fontStyle=0;fontColor=#333333;" parent="1" vertex="1">
          <mxGeometry x="714" y="484" width="180" height="40" as="geometry" />
        </mxCell>
        <mxCell id="RjNWt2BDVBD-UGQIulfL-32" value="erp_px_cat_g1v2" style="rounded=1;whiteSpace=wrap;html=1;fillColor=#f5f5f5;strokeColor=#666666;fontSize=16;fontStyle=0;fontColor=#333333;" parent="1" vertex="1">
          <mxGeometry x="714" y="544" width="180" height="40" as="geometry" />
        </mxCell>
        <mxCell id="RjNWt2BDVBD-UGQIulfL-33" value="" style="rounded=1;whiteSpace=wrap;html=1;fillColor=#fff2cc;strokeColor=#d6b656;fillStyle=hatch;arcSize=5;" parent="1" vertex="1">
          <mxGeometry x="1010" y="190" width="220" height="440" as="geometry" />
        </mxCell>
        <mxCell id="RjNWt2BDVBD-UGQIulfL-34" value="Gold Layer" style="rounded=1;whiteSpace=wrap;html=1;fillColor=#fff2cc;strokeColor=#d6b656;fontSize=20;fontStyle=1;" parent="1" vertex="1">
          <mxGeometry x="1010" y="130" width="220" height="50" as="geometry" />
        </mxCell>
        <mxCell id="RjNWt2BDVBD-UGQIulfL-35" value="fact_sales" style="rounded=1;whiteSpace=wrap;html=1;fillColor=#fff2cc;strokeColor=#d6b656;fontSize=16;fontStyle=0;" parent="1" vertex="1">
          <mxGeometry x="1030" y="248" width="180" height="40" as="geometry" />
        </mxCell>
        <mxCell id="RjNWt2BDVBD-UGQIulfL-36" value="dim_customers" style="rounded=1;whiteSpace=wrap;html=1;fillColor=#fff2cc;strokeColor=#d6b656;fontSize=16;fontStyle=0;" parent="1" vertex="1">
          <mxGeometry x="1030" y="376" width="180" height="40" as="geometry" />
        </mxCell>
        <mxCell id="RjNWt2BDVBD-UGQIulfL-37" value="dim_products" style="rounded=1;whiteSpace=wrap;html=1;fillColor=#fff2cc;strokeColor=#d6b656;fontSize=16;fontStyle=0;" parent="1" vertex="1">
          <mxGeometry x="1030" y="470" width="180" height="40" as="geometry" />
        </mxCell>
        <mxCell id="RjNWt2BDVBD-UGQIulfL-38" value="" style="endArrow=classic;html=1;rounded=0;exitX=1;exitY=0.75;exitDx=0;exitDy=0;entryX=0;entryY=0.5;entryDx=0;entryDy=0;" parent="1" source="RjNWt2BDVBD-UGQIulfL-27" target="RjNWt2BDVBD-UGQIulfL-35" edge="1">
          <mxGeometry width="50" height="50" relative="1" as="geometry">
            <mxPoint x="923" y="360" as="sourcePoint" />
            <mxPoint x="973" y="310" as="targetPoint" />
          </mxGeometry>
        </mxCell>
        <mxCell id="RjNWt2BDVBD-UGQIulfL-39" value="" style="endArrow=classic;html=1;rounded=0;exitX=1;exitY=0.5;exitDx=0;exitDy=0;entryX=0;entryY=0.5;entryDx=0;entryDy=0;jumpStyle=gap;" parent="1" source="RjNWt2BDVBD-UGQIulfL-28" target="RjNWt2BDVBD-UGQIulfL-36" edge="1">
          <mxGeometry width="50" height="50" relative="1" as="geometry">
            <mxPoint x="904" y="276" as="sourcePoint" />
            <mxPoint x="1023" y="280" as="targetPoint" />
          </mxGeometry>
        </mxCell>
        <mxCell id="RjNWt2BDVBD-UGQIulfL-40" value="" style="endArrow=classic;html=1;rounded=0;exitX=1;exitY=0.5;exitDx=0;exitDy=0;entryX=0;entryY=0.5;entryDx=0;entryDy=0;jumpStyle=gap;" parent="1" source="RjNWt2BDVBD-UGQIulfL-30" target="RjNWt2BDVBD-UGQIulfL-36" edge="1">
          <mxGeometry width="50" height="50" relative="1" as="geometry">
            <mxPoint x="904" y="320" as="sourcePoint" />
            <mxPoint x="1013" y="406" as="targetPoint" />
          </mxGeometry>
        </mxCell>
        <mxCell id="RjNWt2BDVBD-UGQIulfL-41" value="" style="endArrow=classic;html=1;rounded=0;exitX=1;exitY=0.5;exitDx=0;exitDy=0;entryX=0;entryY=0.5;entryDx=0;entryDy=0;jumpStyle=gap;" parent="1" source="RjNWt2BDVBD-UGQIulfL-31" target="RjNWt2BDVBD-UGQIulfL-36" edge="1">
          <mxGeometry width="50" height="50" relative="1" as="geometry">
            <mxPoint x="904" y="460" as="sourcePoint" />
            <mxPoint x="1013" y="406" as="targetPoint" />
          </mxGeometry>
        </mxCell>
        <mxCell id="RjNWt2BDVBD-UGQIulfL-42" value="" style="endArrow=classic;html=1;rounded=0;exitX=1;exitY=0.5;exitDx=0;exitDy=0;entryX=0;entryY=0.5;entryDx=0;entryDy=0;jumpStyle=gap;" parent="1" source="RjNWt2BDVBD-UGQIulfL-29" target="RjNWt2BDVBD-UGQIulfL-37" edge="1">
          <mxGeometry width="50" height="50" relative="1" as="geometry">
            <mxPoint x="904" y="320" as="sourcePoint" />
            <mxPoint x="1013" y="406" as="targetPoint" />
          </mxGeometry>
        </mxCell>
        <mxCell id="RjNWt2BDVBD-UGQIulfL-43" value="" style="endArrow=classic;html=1;rounded=0;exitX=1;exitY=0.5;exitDx=0;exitDy=0;entryX=0;entryY=0.5;entryDx=0;entryDy=0;jumpStyle=gap;" parent="1" source="RjNWt2BDVBD-UGQIulfL-32" target="RjNWt2BDVBD-UGQIulfL-37" edge="1">
          <mxGeometry width="50" height="50" relative="1" as="geometry">
            <mxPoint x="904" y="380" as="sourcePoint" />
            <mxPoint x="1013" y="500" as="targetPoint" />
          </mxGeometry>
        </mxCell>
        <mxCell id="RjNWt2BDVBD-UGQIulfL-44" value="" style="image;aspect=fixed;html=1;points=[];align=center;fontSize=12;image=img/lib/azure2/general/File.svg;" parent="1" vertex="1">
          <mxGeometry x="228.12" y="310" width="32.46" height="40" as="geometry" />
        </mxCell>
        <mxCell id="RjNWt2BDVBD-UGQIulfL-45" value="" style="image;aspect=fixed;html=1;points=[];align=center;fontSize=12;image=img/lib/azure2/general/File.svg;" parent="1" vertex="1">
          <mxGeometry x="228.12" y="504" width="32.46" height="40" as="geometry" />
        </mxCell>
        <mxCell id="RjNWt2BDVBD-UGQIulfL-47" value="DATA FLOW" style="text;html=1;align=center;verticalAlign=middle;whiteSpace=wrap;rounded=0;fontSize=27;fontStyle=1" parent="1" vertex="1">
          <mxGeometry x="30" y="30" width="200" height="30" as="geometry" />
        </mxCell>
      </root>
    </mxGraphModel>
  </diagram>
</mxfile>
